<?xml version="1.0" encoding="UTF-8"?>
<svg id="Camada_1" xmlns="http://www.w3.org/2000/svg" version="1.1" viewBox="0 0 1280 259.5">
  <!-- Generator: Adobe Illustrator 29.7.1, SVG Export Plug-In . SVG Version: 2.1.1 Build 8)  -->
  <defs>
    <style>
      .st0 {
        fill: #313131;
      }

      .st1 {
        fill: #00ce5d;
      }
    </style>
  </defs>
  <path class="st0" d="M140,53.8H56.9v191.6h83.1c59.8,0,89.8-33.7,89.8-101s-30-90.6-89.8-90.6ZM134.7,214.6h-42.2V84.7s42.2,0,42.2,0c39.7,0,59.6,19.9,59.6,59.8s-19.9,70.2-59.6,70.2Z"/>
  <path class="st0" d="M347.7,52.5c-64.2,0-96.2,32.5-96.2,97.4,2.8,64.6,34.9,96.9,96.2,96.9,63.1,0,94.7-32.3,94.7-96.9,0-64.9-31.6-97.4-94.7-97.4ZM347.7,216c-39.6,0-59.4-22.3-59.4-66.8s19.8-65.8,59.4-65.8,57.9,22,57.9,65.8-19.3,66.8-57.9,66.8Z"/>
  <path class="st0" d="M560.3,52.5c-64.2,0-96.2,32.5-96.2,97.4,2.8,64.6,34.9,96.9,96.2,96.9s94.7-32.3,94.7-96.9c0-64.9-31.6-97.4-94.7-97.4ZM560.3,216c-39.6,0-59.4-22.3-59.4-66.8,0-43.9,19.8-65.8,59.4-65.8s57.9,22,57.9,65.8c0,44.5-19.3,66.8-57.9,66.8Z"/>
  <polygon class="st0" points="808.7 84.6 808.7 53.8 663.3 53.8 663.3 84.6 718.2 84.6 718.2 245.4 753.7 245.4 753.7 84.6 808.7 84.6"/>
  <path class="st0" d="M871.5,53.8l-81.4,191.6h36.5l63.1-155c16,36.7,23.1,55.1,29.5,72h-46.3l-12.2,30.8h70.7c5.4,12.9,12.4,28.9,23.1,52.3h38.2l-83.1-191.6h-38.2Z"/>
  <polygon class="st0" points="1110.5 155.4 1110.5 155.4 1065.1 155.4 1065.1 155.4 1065.1 155.4 1065.1 155.4 994.3 245.4 994.3 245.4 1039.2 245.4 1089.1 182.4 1145 245.4 1189.9 245.4 1119 155.4 1110.5 155.4"/>
  <path class="st1" d="M1069.6,147.5h49.5c9-58.9,93.4-124.6,105-134.7h-20.6c-43.2,18-95.6,50.6-120.1,92l-32.2-41h-47.5s65.9,83.7,65.9,83.7h0Z"/>
</svg>